<?xml version="1.0" encoding="UTF-8"?>
<svg id="Layer_2" data-name="Layer 2" xmlns="http://www.w3.org/2000/svg" viewBox="0 0 538.02 319.41">
  <defs>
    <style>
      .cls-1, .cls-2, .cls-3 {
        fill: #fff;
      }

      .cls-1, .cls-4 {
        stroke: #fff;
        stroke-miterlimit: 10;
      }

      .cls-3 {
        fill-rule: evenodd;
      }

      .cls-4 {
        fill: none;
        stroke-width: 3px;
      }
    </style>
  </defs>
  <g id="Layer_1-2" data-name="Layer 1">
    <g id="Layer_2-2" data-name="Layer 2">
      <g>
        <g>
          <g>
            <path class="cls-3" d="M81.75,197.75c-7.06.04-9.08.12-10.09-.2-1.01-.32-1.01-1.03-.48-3.57.53-2.54,1.58-6.89,2.06-11.41.48-4.51.4-9.19-.88-13.78-1.27-4.6-3.73-9.11-8.11-14.5-4.39-5.39-10.71-11.65-15.27-16.84-4.56-5.19-7.37-9.31-9.52-12.64-2.15-3.33-3.65-5.86-5.31-9.39-1.67-3.52-3.51-8.04-4.82-12.36-1.32-4.32-2.11-8.44-2.77-12.6-.66-4.16-1.18-8.36-1.23-12.4-.04-4.04.4-7.92,1.14-11.76.75-3.84,1.8-7.65,3.47-11.61,1.67-3.96,3.95-8.08,6.84-12.08,2.9-4,6.41-7.88,10.84-11.53,4.43-3.65,9.78-7.05,15.48-9.79,5.7-2.73,11.76-4.79,18.78-6.22,7.02-1.43,15.01-2.22,22.24-2.5,7.24-.28,13.73-.04,20.58,1.07,6.84,1.11,14.04,3.09,20.57,5.62,6.54,2.54,12.42,5.63,17.38,9.15,4.95,3.53,8.99,7.49,12.33,12,3.33,4.51,5.97,9.58,7.99,14.89,2.02,5.31,3.42,10.85,4.17,16.44.75,5.59.83,11.21.44,16.36-.4,5.15-1.27,9.82-2.77,14.38-1.44,4.4-3.46,8.7-8.78,16.25h17.83c4.06-6.63,4.66-9.96,5.56-13.67.92-3.8,2.15-8,3.11-11.65.96-3.64,1.67-6.73,1.8-10.42.13-3.69-.31-7.96-.96-12.44-.66-4.47-1.54-9.15-2.85-13.51-1.31-4.36-3.07-8.4-5.31-12.48-2.24-4.08-4.96-8.2-7.9-11.92-2.94-3.73-6.1-7.05-9.65-10.18-3.55-3.13-7.5-6.06-12.37-8.79-4.87-2.73-10.66-5.27-15.32-7.09-4.65-1.82-8.16-2.93-12.68-3.84-4.51-.91-10.04-1.62-14.39-2.1C118.56.2,115.4-.04,110.58,0c-4.83.04-11.32.36-17.77,1.11-6.45.75-12.86,1.94-19.3,3.8-6.45,1.86-12.95,4.4-18.56,7.17-5.62,2.77-10.35,5.78-14.48,8.83-4.13,3.05-7.63,6.14-10.93,10.06-3.29,3.92-6.36,8.67-8.73,13.19-2.37,4.52-4.04,8.79-5.18,12.96-1.14,4.16-1.76,8.2-2.15,12.99-.39,4.79-.57,10.34-.39,15.25.17,4.91.7,9.19,1.8,13.51,1.09,4.32,2.77,8.68,4.87,13.43,2.11,4.75,4.65,9.9,6.97,14.1,2.33,4.2,4.43,7.45,7.02,10.58,2.59,3.13,5.66,6.14,8.91,9.47,3.24,3.33,6.67,6.97,9.65,10.58,2.98,3.61,5.53,7.17,7.28,10.18,1.76,3.01,2.72,5.47,3.25,7.73.53,2.26.61,4.32.3,7.49-.3,3.17-1.01,7.45-1.62,10.46-.61,3.01-1.14,4.75-1.1,6.42.04,1.66.66,3.25,1.58,4.36.92,1.11,2.15,1.74,4.83,2.26,2.68.51,6.8.91,14.34.79,7.55-.12,18.51-.75,25.97-.87,7.46-.12,11.41.28,13.69.79,2.28.51,2.9,1.15,2.67,1.78-.22.63-1.27,1.27-4.21,1.67-2.94.39-7.76.55-11.71.95-3.95.4-7.02,1.03-11.45,1.35-4.43.32-10.22.32-15.71.59-5.48.28-10.66.83-14.43,1.47-3.77.63-6.14,1.35-7.46,2.45-1.31,1.11-1.58,2.62-.97,4.28.62,1.66,2.1,3.49,4.12,4.68,2.02,1.19,4.57,1.74,8.21,2.34,3.64.59,8.38,1.23,14.21,1.66,5.83.44,12.77.67,17.02.91,4.26.24,5.84.47,6.19,1.03.35.56-.52,1.43-3.46,2.3-2.94.87-7.94,1.74-14.31,2.74-6.36.99-14.08,2.1-26.01,3.84-11.93,1.74-28.08,4.12-39.4,5.98-11.32,1.86-17.81,3.21-21.32,4.16-3.51.95-4.04,1.51.09,1.55,4.12.04,12.9-.44,25.45-1.86,12.55-1.43,28.87-3.8,41.94-5.67,13.07-1.86,22.9-3.21,30.18-4.48,7.28-1.27,12.02-2.46,15.14-3.88,3.11-1.43,4.61-3.09,4.56-4.52-.04-1.43-1.62-2.61-4.3-3.68-2.67-1.07-6.45-2.02-10.96-2.5-4.52-.48-9.79-.48-15.14-.79-5.35-.32-10.8-.95-14.39-1.82-3.6-.87-5.36-1.98-5.31-2.69.04-.71,1.89-1.03,6.19-1.19,4.3-.16,11.06-.16,17.59-.12,6.54.04,12.85.12,18.34-.28,5.49-.4,10.13-1.27,13.43-2.22,3.29-.95,5.22-1.98,6.54-3.41,1.31-1.43,2.01-3.25,2.06-5.03.05-1.78-.57-3.53-1.88-5.15-1.32-1.62-3.34-3.13-6.67-4-3.34-.87-7.99-1.11-16.37-1.23-8.38-.12-20.49-.12-27.55-.08M155.78,144.83l-1.42,1.74c-5.96,7.33-8.51,10.34-11.05,14.82-2.55,4.48-5.09,10.42-6.45,15.65-1.36,5.23-1.53,9.75-1.36,14.42.17,4.68.7,9.51,1.05,13.15.35,3.64.53,6.1-.22,7.96-.75,1.86-2.41,3.13-3.12,5.98-.7,2.85-.44,7.29.61,10.97,1.05,3.68,2.89,6.62,5.39,8.99,2.5,2.38,5.66,4.2,9.13,5.03,3.47.83,7.24.67,10.62-.47,3.38-1.15,6.36-3.29,8.34-5.39,1.98-2.1,2.94-4.16,3.2-7.68.26-3.53-.17-8.52-1.1-12.2-.92-3.68-2.33-6.06-4.74-8.36-2.41-2.3-5.84-4.52-7.99-6.5-2.15-1.98-3.03-3.72-3.68-6.81-.66-3.09-1.1-7.53-.75-11.77.35-4.24,1.49-8.28,3.25-12.08,1.75-3.8,4.12-7.37,7.15-11.49,2.97-4.04,6.57-8.61,12.25-15.96h-19.13ZM142.13,220.25c4.17-1.12,12.68-2.79,17.11-3.56,4.43-.77,4.78-.65,5.22.06.44.71.97,2.02,1.32,3.92.35,1.9.53,4.4.46,6.6-.06,2.2-.37,4.1-1.05,5.74-.68,1.64-1.73,3.03-2.98,4.18-1.26,1.15-2.7,2.06-4.22,2.66-1.51.59-3.1.87-4.82.77-1.73-.1-3.62-.57-5.35-1.53-1.73-.95-3.31-2.38-4.61-3.88-1.29-1.51-2.3-3.09-2.95-4.48-.65-1.38-.92-2.57-1.19-3.9-.26-1.33-.51-2.82-.72-3.85-.21-1.03-.39-1.61,3.78-2.73M146.85,209.23c.66,1.31,1.38,4.27,1.72,5.76.34,1.49.32,1.51-1.42,1.98-1.74.47-5.21,1.38-6.97,1.8-1.75.42-1.8.37-1.6-.6.2-.96.64-2.82,1.48-4.41.84-1.59,2.1-2.89,2.98-3.71.89-.81,1.42-1.13,1.98-1.46.57-.33,1.16-.68,1.82.63"/>
            <g>
              <path class="cls-3" d="M83.88,197.74l-7.19.05,17.95-88.79,40.27,5.23-20.52,83.71-5.1-.11.24-.97c-.23-.07-.48-.15-.75-.26-1.56-.6-3.77-1.89-6.07-2.71-2.3-.82-4.69-1.18-7.12-1.16-2.42.02-4.88.42-6.84,1.09-1.96.67-3.42,1.62-4.5,2.33-.13.08-.26.17-.38.24v1.35ZM110.47,193.02l18.39-75.71-30.27-4.51-14.74,78.43v.21c.21-.08.44-.16.68-.24,2-.68,4.67-1.4,7.56-1.7,2.88-.31,5.98-.21,8.95.36,2.97.57,5.82,1.59,7.73,2.39.69.28,1.25.54,1.71.78"/>
              <g>
                <path class="cls-2" d="M115.58,84.67c7.09,0,12.84,5.19,12.84,11.6s-5.75,11.59-12.84,11.59-12.84-5.19-12.84-11.59,5.75-11.6,12.84-11.6"/>
                <path class="cls-3" d="M83.89,105.37c1.05-2.26,2.54-6.18,4.06-9.25,1.52-3.07,3.05-5.29,5.93-7.92,2.87-2.64,7.09-5.68,10.68-7.63,3.6-1.94,6.59-2.77,10.85-3.11,4.27-.34,9.84-.19,13.89,1.04,4.05,1.23,6.6,3.55,8.27,5.22,1.67,1.67,2.47,2.69,3.05,3.29.57.61.92.81.88.02-.04-.79-.48-2.58-1.71-4.91-1.23-2.34-3.24-5.23-5.42-7.39-2.17-2.16-4.49-3.59-7.84-4.36-3.34-.78-7.69-.9-11.29-.61-3.6.3-6.44,1.02-9.46,2.23-3.02,1.21-6.22,2.91-9.12,4.92-2.9,2-5.48,4.3-7.83,7.17-2.35,2.87-4.45,6.32-5.73,9.55-1.27,3.23-1.71,6.24-1.82,8.73-.11,2.49.11,4.48.53,5.17.42.69,1.03.1,2.09-2.16"/>
                <path class="cls-3" d="M62.67,105.82c1.25-1.35,2.94-10.86,6.16-18.03,3.23-7.17,7.99-11.98,12.83-15.76,4.85-3.78,9.78-6.54,15.15-8.56,5.36-2.02,11.15-3.31,16.85-3.71,5.69-.41,11.29.07,16.23,1.75,4.95,1.68,9.25,4.57,12.1,7.35,2.86,2.78,4.27,5.44,5.06,6.26.8.82.97-.21.67-2.69-.3-2.48-1.08-6.41-3.7-10.16-2.63-3.75-7.1-7.32-12.73-9.63-5.62-2.31-12.39-3.37-19.49-2.99-7.09.39-14.52,2.22-21.19,5.34-6.67,3.12-12.6,7.54-16.83,12-4.23,4.45-6.78,8.95-8.84,13.37-2.05,4.43-3.61,8.79-3.97,14.38-.37,5.59.44,12.42,1.69,11.07"/>
                <path class="cls-3" d="M50.2,95.15c1.1-2.3,1.32-10.18,5.79-18.94,4.47-8.75,13.2-18.38,22.65-24.98,9.44-6.6,19.6-10.16,29.77-11.13,10.16-.97,20.35.65,27.59,4.4,7.25,3.74,11.57,9.61,14,12.42,2.42,2.81,2.95,2.57,2.44-1.09-.5-3.67-2.04-10.76-7.7-16.68-5.66-5.92-15.45-10.67-26.53-11.9-11.09-1.23-23.49,1.07-33.97,6.06-10.49,4.99-19.07,12.67-24.98,19.84-5.91,7.17-9.16,13.82-11.07,20.02-1.91,6.2-2.48,11.95-1.78,16.46.7,4.52,2.68,7.81,3.77,5.51"/>
              </g>
            </g>
          </g>
          <g>
            <g>
              <path class="cls-2" d="M208.08,238.39h-18.44v-80.42h42.38v61.34l-23.93,19.08Z"/>
              <path class="cls-2" d="M256.76,145.1h-109.45v-11.11l19.97-15.45h106.86v13.11l-17.38,13.45Z"/>
            </g>
            <g>
              <polygon class="cls-2" points="300.27 118.75 284.39 132.26 284.39 145.26 324.31 145.26 339 145.26 396.22 145.26 396.22 118.75 300.27 118.75"/>
              <polygon class="cls-2" points="398.87 225.37 398.87 213.55 324.31 213.55 324.31 196.26 324.31 191.38 324.31 165.71 324.31 160 284.39 160 284.39 240.07 381.59 240.07 398.87 225.37"/>
            </g>
            <g>
              <polygon class="cls-2" points="429.15 118.74 413.27 132.25 413.27 145.25 453.19 145.25 467.88 145.25 525.1 145.25 525.1 118.74 429.15 118.74"/>
              <polygon class="cls-2" points="527.75 225.36 527.75 213.55 453.19 213.55 453.19 196.25 453.19 191.37 453.19 165.71 453.19 159.99 413.27 159.99 413.27 240.06 510.47 240.06 527.75 225.36"/>
            </g>
          </g>
          <g>
            <g>
              <polygon class="cls-4" points="187.9 252.85 187.9 317.85 494 317.85 528.03 279.76 528.03 252.85 187.9 252.85"/>
              <polygon class="cls-1" points="528.03 303.28 514.06 318.91 528.03 318.91 528.03 303.28"/>
            </g>
            <g>
              <path class="cls-2" d="M328.39,295.72v6s-24.14-.05-24.14-.05v-4.77s12.35-11.56,12.35-11.56c2.83-2.67,3.34-4.31,3.34-5.85,0-2.5-1.72-3.96-5.1-3.96-2.74,0-5.06,1.03-6.62,3.17l-5.37-3.46c2.47-3.58,6.95-5.89,12.69-5.88,7.11.02,11.85,3.66,11.84,9.43,0,3.09-.88,5.9-5.36,10.03l-7.36,6.89,13.73.03Z"/>
              <path class="cls-2" d="M331.38,285.82c.02-10.49,5.88-16.43,13.72-16.41,7.89.02,13.67,5.98,13.64,16.48-.02,10.49-5.83,16.43-13.72,16.41-7.84-.02-13.67-5.98-13.64-16.48ZM351.31,285.87c.02-7.22-2.53-10.23-6.22-10.24-3.65,0-6.21,2.98-6.23,10.21-.02,7.22,2.53,10.23,6.18,10.24,3.69,0,6.26-2.98,6.27-10.21Z"/>
              <path class="cls-2" d="M385.9,295.85v6s-24.14-.05-24.14-.05v-4.77s12.35-11.56,12.35-11.56c2.83-2.67,3.34-4.31,3.34-5.85,0-2.5-1.72-3.96-5.1-3.96-2.74,0-5.07,1.03-6.62,3.17l-5.37-3.46c2.47-3.58,6.95-5.89,12.69-5.88,7.11.02,11.85,3.66,11.84,9.43,0,3.09-.88,5.9-5.36,10.03l-7.36,6.89,13.73.03Z"/>
              <path class="cls-2" d="M413.09,291.91c-.01,5.63-4.17,10.53-13.29,10.51-4.42-.01-9.07-1.25-12.17-3.44l2.93-5.63c2.41,1.82,5.74,2.88,9.07,2.88,3.69,0,5.98-1.53,5.98-4.12,0-2.5-1.63-4.14-7.42-4.15l-8.16-.02,1.68-17.9,19.47.04v5.91s-13.33-.03-13.33-.03l-.52,6.04h2.6c9.44.03,13.17,4.26,13.16,9.89Z"/>
            </g>
          </g>
        </g>
        <g>
          <g>
            <path class="cls-2" d="M278.68,105.39h-9.79l25.9-22.98h9.79l-25.9,22.98ZM272.09,104.21h6.04l23.24-20.63h-6.04l-23.24,20.63Z"/>
            <path class="cls-2" d="M250.86,105.39h-29.22v-22.98h55.12l-25.9,22.98ZM222.97,104.21h27.35l23.24-20.63h-50.59v20.63Z"/>
            <path class="cls-2" d="M264.77,105.39h-9.79l25.9-22.98h9.79l-25.9,22.98ZM258.18,104.21h6.04l23.24-20.63h-6.04l-23.24,20.63Z"/>
            <path class="cls-2" d="M292.58,105.39h-9.79l25.9-22.98h9.79l-25.9,22.98ZM286,104.21h6.04l23.24-20.63h-6.04l-23.24,20.63Z"/>
            <path class="cls-2" d="M373.55,105.39h-76.85l25.9-22.98h34.86l16.1,14.29v8.69ZM299.9,104.21h72.32v-7.03l-15.32-13.6h-33.76l-23.24,20.63Z"/>
          </g>
          <polygon class="cls-2" points="538.02 182.43 536.64 182.43 536.64 96.95 485.78 96.95 475.89 105.4 206.11 105.51 206.11 104.51 475.31 104.22 485.21 95.77 538.02 95.77 538.02 182.43"/>
        </g>
      </g>
    </g>
  </g>
</svg>