<svg width="99" height="285" viewBox="0 0 99 285" fill="none" xmlns="http://www.w3.org/2000/svg">
<rect width="6" height="6" fill="#0F114C"/>
<rect y="31" width="6" height="6" fill="#0F114C"/>
<rect y="62" width="6" height="6" fill="#0F114C"/>
<rect y="93" width="6" height="6" fill="#0F114C"/>
<rect y="124" width="6" height="6" fill="#0F114C"/>
<rect x="31" width="6" height="6" fill="#0F114C"/>
<rect x="31" y="31" width="6" height="6" fill="#0F114C"/>
<rect x="31" y="62" width="6" height="6" fill="#0F114C"/>
<rect x="31" y="93" width="6" height="6" fill="#0F114C"/>
<rect x="31" y="124" width="6" height="6" fill="#0F114C"/>
<rect x="62" width="6" height="6" fill="#0F114C"/>
<rect x="62" y="31" width="6" height="6" fill="#0F114C"/>
<rect x="62" y="62" width="6" height="6" fill="#0F114C"/>
<rect x="62" y="93" width="6" height="6" fill="#0F114C"/>
<rect x="62" y="124" width="6" height="6" fill="#0F114C"/>
<rect x="93" width="6" height="6" fill="#0F114C"/>
<rect x="93" y="31" width="6" height="6" fill="#0F114C"/>
<rect x="93" y="62" width="6" height="6" fill="#0F114C"/>
<rect x="93" y="93" width="6" height="6" fill="#0F114C"/>
<rect x="93" y="124" width="6" height="6" fill="#0F114C"/>
<rect y="155" width="6" height="6" fill="#0F114C"/>
<rect y="186" width="6" height="6" fill="#0F114C"/>
<rect y="217" width="6" height="6" fill="#0F114C"/>
<rect y="248" width="6" height="6" fill="#0F114C"/>
<rect y="279" width="6" height="6" fill="#0F114C"/>
<rect x="31" y="155" width="6" height="6" fill="#0F114C"/>
<rect x="31" y="186" width="6" height="6" fill="#0F114C"/>
<rect x="31" y="217" width="6" height="6" fill="#0F114C"/>
<rect x="31" y="248" width="6" height="6" fill="#0F114C"/>
<rect x="31" y="279" width="6" height="6" fill="#0F114C"/>
<rect x="62" y="155" width="6" height="6" fill="#0F114C"/>
<rect x="62" y="186" width="6" height="6" fill="#0F114C"/>
<rect x="62" y="217" width="6" height="6" fill="#0F114C"/>
<rect x="62" y="248" width="6" height="6" fill="#0F114C"/>
<rect x="62" y="279" width="6" height="6" fill="#0F114C"/>
<rect x="93" y="155" width="6" height="6" fill="#0F114C"/>
<rect x="93" y="186" width="6" height="6" fill="#0F114C"/>
<rect x="93" y="217" width="6" height="6" fill="#0F114C"/>
<rect x="93" y="248" width="6" height="6" fill="#0F114C"/>
<rect x="93" y="279" width="6" height="6" fill="#0F114C"/>
</svg>
