<svg width="17" height="12" viewBox="0 0 17 12" fill="none" xmlns="http://www.w3.org/2000/svg">
<path fill-rule="evenodd" clip-rule="evenodd" d="M16.2181 5.14684L11.4476 0.376281C11.2165 0.145213 10.8797 0.187959 10.6487 0.418878L10.6368 0.430873C10.4011 0.666504 10.3545 0.996908 10.5903 1.23269L14.2552 4.89764C14.4464 5.08884 14.3086 5.41707 14.039 5.41655L0.775508 5.40153C0.445088 5.40099 0.17647 5.66961 0.176577 5.9996C0.177113 6.33002 0.444621 6.59838 0.774611 6.59763L14.0432 6.58523C14.3132 6.58532 14.4466 6.90978 14.256 7.10043L10.6337 10.7227C10.4006 10.9558 10.4093 11.3338 10.6429 11.5674L10.6549 11.5794C10.8886 11.8131 11.258 11.8132 11.4911 11.5801L16.2097 6.8615C16.6831 6.3881 16.6918 5.62055 16.2181 5.14684Z" fill="white"/>
</svg>
